<?xml version="1.0" standalone="no"?>
<!DOCTYPE svg PUBLIC "-//W3C//DTD SVG 20010904//EN"
 "http://www.w3.org/TR/2001/REC-SVG-20010904/DTD/svg10.dtd">
<svg version="1.0" xmlns="http://www.w3.org/2000/svg"
 width="100.000000pt" height="100.000000pt" viewBox="0 0 100.000000 100.000000"
 preserveAspectRatio="xMidYMid meet">
<metadata>
Created by potrace 1.14, written by Peter Selinger 2001-2017
</metadata>
<g transform="translate(0.000000,100.000000) scale(0.100000,-0.100000)"
fill="#000000" stroke="none">
<path d="M463 877 c-10 -12 -40 -28 -67 -35 -60 -16 -161 -81 -147 -95 6 -6
17 -2 33 13 28 27 81 54 130 68 31 9 39 7 54 -9 22 -24 46 -24 67 -1 22 24 21
45 -1 65 -25 23 -47 21 -69 -6z m57 -13 c11 -12 10 -18 -3 -32 -15 -15 -19
-15 -32 -1 -17 17 -11 49 10 49 7 0 18 -7 25 -16z"/>
<path d="M586 841 c-3 -5 17 -18 44 -29 28 -12 71 -38 95 -58 41 -33 45 -40
39 -69 -10 -56 44 -86 81 -45 15 17 16 24 7 45 -6 14 -15 25 -19 26 -31 3 -47
11 -66 32 -48 53 -169 118 -181 98z m243 -186 c-17 -18 -49 -10 -49 11 0 22
33 35 50 18 12 -12 12 -16 -1 -29z"/>
<path d="M164 712 c-17 -11 -22 -35 -13 -58 4 -11 2 -45 -5 -75 -13 -53 -13
-120 -1 -167 9 -35 24 -16 16 20 -14 60 8 206 28 194 14 -9 51 25 51 48 0 38
-43 60 -76 38z m54 -39 c3 -19 -1 -23 -21 -23 -26 0 -38 15 -29 38 8 22 47 10
50 -15z"/>
<path d="M380 656 c-44 -20 -38 -123 8 -128 40 -4 48 -6 76 -17 24 -10 41 -9
89 3 73 19 97 39 97 82 0 31 -20 62 -41 65 -43 6 -213 2 -229 -5z m55 -15 c3
-5 0 -13 -6 -16 -5 -4 -9 -23 -7 -44 2 -20 0 -35 -5 -33 -4 1 -13 2 -20 2 -38
0 -36 83 2 93 27 8 30 7 36 -2z m112 -17 c33 -45 -5 -112 -55 -99 -52 12 -69
68 -33 104 24 24 69 21 88 -5z m75 3 c13 -20 9 -55 -8 -72 -24 -24 -39 -13
-36 27 2 20 -1 39 -7 43 -6 3 -11 11 -11 17 0 13 52 1 62 -15z"/>
<path d="M839 585 c0 -6 0 -40 1 -77 2 -93 -15 -144 -50 -151 -45 -10 -48 -72
-3 -83 40 -10 58 7 56 52 -1 22 3 54 9 73 14 44 13 170 -1 184 -6 6 -11 7 -12
2z m-11 -272 c3 -19 -1 -23 -22 -23 -21 0 -26 5 -26 26 0 21 4 25 23 22 14 -2
23 -11 25 -25z"/>
<path d="M622 510 c-9 -15 -19 -18 -40 -14 -25 5 -29 1 -50 -40 -12 -25 -26
-46 -31 -46 -5 0 -20 19 -33 43 -20 35 -28 42 -53 40 -17 -1 -33 4 -40 14 -13
18 -47 13 -78 -11 -18 -14 -39 -107 -28 -124 3 -6 17 -9 31 -8 19 1 25 -4 25
-19 0 -19 8 -20 178 -23 140 -2 178 0 176 10 -3 28 2 34 29 34 25 -1 27 1 24
39 -3 35 -20 95 -27 95 -1 0 -18 6 -37 14 -31 13 -35 13 -46 -4z m-259 -16 c4
-4 -2 -19 -13 -34 -11 -16 -20 -38 -20 -49 0 -16 -6 -21 -26 -21 -20 0 -25 4
-20 16 3 9 6 24 6 35 0 35 53 73 73 53z m312 -6 c14 -6 28 -22 31 -37 3 -14 7
-34 8 -43 4 -17 -19 -32 -34 -23 -4 2 -10 18 -13 34 -3 16 -13 36 -22 45 -9 9
-13 20 -10 26 8 13 9 13 40 -2z m-219 -57 c25 -52 56 -56 80 -8 27 53 32 57
63 46 33 -12 51 -45 51 -94 l0 -33 -154 0 c-134 1 -153 3 -150 17 2 9 6 33 9
54 5 31 12 41 38 52 17 7 34 12 38 10 3 -2 14 -22 25 -44z"/>
<path d="M155 350 c-15 -17 -16 -24 -7 -45 6 -13 24 -28 39 -31 15 -4 42 -21
61 -38 37 -35 120 -86 140 -86 24 0 11 19 -20 29 -18 6 -55 29 -83 51 -45 36
-50 43 -51 80 -1 60 -42 80 -79 40z m59 -15 c7 -20 -3 -45 -20 -45 -20 0 -36
34 -22 48 16 16 35 15 42 -3z"/>
<path d="M701 220 c-33 -28 -107 -60 -139 -60 -9 0 -23 7 -33 16 -26 23 -67
11 -75 -23 -5 -20 -2 -31 16 -45 29 -24 36 -23 64 7 13 14 32 25 42 25 42 1
174 77 174 101 0 15 -13 10 -49 -21z m-181 -66 c11 -12 11 -18 -2 -30 -16 -16
-48 -9 -48 10 0 13 20 36 31 36 4 0 12 -7 19 -16z"/>
</g>
</svg>
